<svg width="40" height="40" viewBox="0 0 40 40" fill="none" xmlns="http://www.w3.org/2000/svg">
<path fill-rule="evenodd" clip-rule="evenodd" d="M14.444 19.7939C19.044 15.1792 23.54 10.6765 27.932 6.28587C28.1619 6.0442 28.2901 5.72342 28.2901 5.38987C28.2901 5.05632 28.1619 4.73554 27.932 4.49387C27.31 3.80187 26.326 3.86187 25.878 4.33387C21.326 8.89787 16.564 13.6679 11.592 18.6439C11.1973 18.9679 11 19.3505 11 19.7919C11 20.2332 11.1973 20.6279 11.592 20.9759L26.558 35.5879C26.8453 35.8515 27.224 35.9929 27.6138 35.982C28.0035 35.9712 28.3738 35.809 28.646 35.5299C29.362 34.8119 29.086 34.1039 28.762 33.7679C23.9818 29.1162 19.2085 24.4575 14.442 19.7919" fill="#838383"/>
</svg>
