<svg width="40" height="40" viewBox="0 0 40 40" fill="none" xmlns="http://www.w3.org/2000/svg">
<path fill-rule="evenodd" clip-rule="evenodd" d="M25.556 19.7939C20.956 15.1792 16.46 10.6765 12.068 6.28587C11.8381 6.0442 11.7099 5.72342 11.7099 5.38987C11.7099 5.05632 11.8381 4.73554 12.068 4.49387C12.69 3.80187 13.674 3.86187 14.122 4.33387C18.674 8.89787 23.436 13.6679 28.408 18.6439C28.8027 18.9679 29 19.3505 29 19.7919C29 20.2332 28.8027 20.6279 28.408 20.9759L13.442 35.5879C13.1547 35.8515 12.776 35.9929 12.3862 35.982C11.9965 35.9712 11.6262 35.809 11.354 35.5299C10.638 34.8119 10.914 34.1039 11.238 33.7679C16.0182 29.1162 20.7915 24.4575 25.558 19.7919" fill="#838383"/>
</svg>
