<svg width="49" height="55" viewBox="0 0 49 55" fill="none" xmlns="http://www.w3.org/2000/svg">
<path fill-rule="evenodd" clip-rule="evenodd" d="M32.7142 4.12631L32.5012 4.36031C32.2246 4.66343 31.9446 4.96345 31.6612 5.26031C31.513 5.06548 31.365 4.87048 31.2172 4.67531C30.2932 3.47531 29.5132 2.59331 28.6762 1.88831C27.5302 0.919307 26.3362 0.334307 24.9502 0.334307C24.2002 0.334307 23.4892 0.517307 22.8202 0.844307C21.3562 1.55231 20.2702 2.73731 18.8212 4.76231C18.7006 4.93184 18.5806 5.10184 18.4612 5.27231C18.1852 5.00231 17.8702 4.67831 17.5012 4.29131L17.3002 4.08131C15.6382 2.33531 15.1972 1.89131 14.4532 1.28531C13.7512 0.712307 13.1182 0.325307 12.3382 0.133307C11.5101 -0.0836293 10.6305 0.0202233 9.87569 0.424076C9.12083 0.827928 8.54635 1.50198 8.26724 2.31131C7.39062 4.74246 6.94493 7.30794 6.95024 9.89231C6.95024 21.7123 13.5862 30.0283 24.9502 30.0283C36.3142 30.0283 42.9502 21.7153 42.9502 9.89231C42.9561 7.30763 42.5094 4.74188 41.6302 2.31131C41.3523 1.49943 40.7763 0.823464 40.0188 0.420215C39.2614 0.0169674 38.379 -0.0834429 37.5502 0.139307C36.7642 0.340307 36.1402 0.736307 35.4502 1.32431C34.7302 1.93031 34.3252 2.36231 32.7142 4.12631ZM24.9502 24.0283C17.2342 24.0283 12.9502 18.6583 12.9502 9.89231C12.9502 9.35231 12.9772 8.82131 13.0252 8.29331L13.1662 8.43731C14.3902 9.72131 15.1462 10.4533 15.9262 11.0533C17.8702 12.5413 19.8382 13.1203 21.6382 11.0623C21.9622 10.6933 22.2802 10.2763 22.7062 9.67331L22.9312 9.34931L23.7022 8.25431C24.2272 7.51631 24.6682 6.97331 24.9892 6.63431C25.5253 7.16453 26.0197 7.73522 26.4682 8.34131C26.3332 8.16731 28.1182 10.5523 28.5682 11.0623C30.3742 13.1293 32.3662 12.5323 34.2652 11.0323C35.0152 10.4323 35.7412 9.70331 36.8872 8.45231C36.9292 8.92931 36.9502 9.40931 36.9502 9.89231C36.9502 18.6613 32.6662 24.0283 24.9502 24.0283Z" fill="#FE9C39"/>
<path d="M21.9502 30.0283C21.9502 29.2327 22.2663 28.4696 22.8289 27.907C23.3915 27.3444 24.1545 27.0283 24.9502 27.0283C25.7458 27.0283 26.5089 27.3444 27.0715 27.907C27.6341 28.4696 27.9502 29.2327 27.9502 30.0283V49.5283C27.9502 50.324 27.6341 51.087 27.0715 51.6496C26.5089 52.2123 25.7458 52.5283 24.9502 52.5283C24.1545 52.5283 23.3915 52.2123 22.8289 51.6496C22.2663 51.087 21.9502 50.324 21.9502 49.5283V30.0283Z" fill="#FE9C39"/>
<path fill-rule="evenodd" clip-rule="evenodd" d="M30.2512 36.0732C23.6962 41.5752 19.3852 48.5682 22.9372 52.8012C26.4352 56.9712 36.0772 54.6852 41.8222 49.8612C47.4262 45.1602 49.9822 38.3562 46.4902 34.1952C42.9982 30.0342 35.8552 31.3692 30.2512 36.0732ZM27.7102 49.0572C27.6724 49.0432 27.6362 49.0251 27.6022 49.0032L27.6562 49.0932C27.6802 49.1112 27.6952 49.1052 27.7102 49.0572ZM37.9642 45.2652C34.6432 48.0552 28.9222 49.5312 27.7102 49.0572C27.7187 49.0275 27.7257 48.9975 27.7312 48.9672C27.8452 48.4002 28.1992 47.5962 28.7752 46.6602C29.9872 44.6922 32.0062 42.4332 34.1092 40.6692C37.5112 37.8132 41.1262 37.1382 41.8942 38.0532C42.6622 38.9682 41.3692 42.4092 37.9642 45.2652Z" fill="#FE9C39"/>
<path fill-rule="evenodd" clip-rule="evenodd" d="M18.7463 36.0732C25.3043 41.5752 29.6123 48.5682 26.0603 52.8012C22.5623 56.9712 12.9233 54.6852 7.1783 49.8612C1.5713 45.1602 -0.981703 38.3562 2.5103 34.1952C6.0023 30.0342 13.1423 31.3692 18.7463 36.0732ZM21.2903 49.0572C21.3271 49.043 21.3623 49.0249 21.3953 49.0032L21.3413 49.0932C21.3173 49.1112 21.3023 49.1052 21.2903 49.0572ZM11.0303 45.2682C14.3543 48.0582 20.0753 49.5342 21.2873 49.0602C21.2788 49.0305 21.2718 49.0005 21.2663 48.9702C21.1523 48.4032 20.7983 47.5992 20.2223 46.6632C19.0073 44.6952 16.9913 42.4362 14.8883 40.6722C11.4833 37.8162 7.8683 37.1412 7.1033 38.0562C6.3353 38.9712 7.6253 42.4122 11.0303 45.2682Z" fill="#FE9C39"/>
</svg>
