<svg width="50" height="50" viewBox="0 0 50 50" fill="none" xmlns="http://www.w3.org/2000/svg">
<path fill-rule="evenodd" clip-rule="evenodd" d="M17.1754 3.32958C18.6957 1.76135 20.6274 0.686127 22.7326 0.2363C24.8377 -0.213528 27.0244 -0.0183167 29.0234 0.797896C31.0224 1.61411 32.7464 3.01569 33.9831 4.83005C35.2198 6.64441 35.9153 8.79233 35.9838 11.0093C38.7164 10.1967 41.648 10.509 44.162 11.8807C46.676 13.2523 48.5766 15.5764 49.4639 18.3642C50.3404 21.1433 50.1362 24.1687 48.8944 26.7954C47.6525 29.4221 45.4702 31.4482 42.8079 32.4462C44.3869 34.8691 44.9886 37.8315 44.4856 40.7046C43.9825 43.5777 42.4141 46.1356 40.1134 47.8353C37.8083 49.5529 34.9506 50.2883 32.1338 49.8888C29.317 49.4893 26.7576 47.9857 24.9872 45.6901C23.8847 47.1212 22.465 48.258 20.8477 49.0048C19.2304 49.7515 17.4629 50.0864 15.694 49.981C13.9251 49.8757 12.2067 49.3334 10.6834 48.3996C9.1601 47.4659 7.87658 46.1682 6.94095 44.6157C5.84017 42.7816 5.275 40.659 5.31308 38.502C5.35116 36.3451 5.99088 34.2451 7.15566 32.4536C4.49881 31.4395 2.32585 29.4032 1.09268 26.7718C-0.140481 24.1404 -0.33801 21.1185 0.541539 18.3402C1.42109 15.5618 3.30936 13.2428 5.81018 11.8698C8.31099 10.4969 11.23 10.1765 13.9547 10.9761C14.0523 8.09979 15.2032 5.3686 17.1754 3.33327V3.32958ZM32.8598 26.0292C32.8598 30.4967 29.3279 34.1151 24.9693 34.1151C22.8838 34.122 20.8811 33.274 19.4015 31.7577C17.9218 30.2414 17.0863 28.1809 17.0788 26.0292C17.0788 21.5616 20.6107 17.9433 24.9693 17.9433C29.3279 17.9433 32.8598 21.5616 32.8598 26.0292Z" fill="#FE9C39"/>
</svg>
