<svg width="24" height="24" viewBox="0 0 24 24" fill="none" xmlns="http://www.w3.org/2000/svg">
<path fill-rule="evenodd" clip-rule="evenodd" d="M17.003 10.7302C17.2572 10.9744 17.4 11.3055 17.4 11.6507C17.4 11.9959 17.2572 12.327 17.003 12.5711L9.33152 19.9359C9.20642 20.0602 9.05679 20.1594 8.89134 20.2276C8.72589 20.2959 8.54794 20.3318 8.36788 20.3333C8.18782 20.3348 8.00925 20.3018 7.84259 20.2364C7.67593 20.1709 7.52452 20.0743 7.39719 19.952C7.26986 19.8298 7.16917 19.6844 7.10098 19.5244C7.0328 19.3644 6.99849 19.193 7.00005 19.0201C7.00162 18.8473 7.03903 18.6764 7.1101 18.5176C7.18117 18.3588 7.28448 18.2151 7.414 18.095L14.1267 11.6507L7.414 5.20632C7.16698 4.96079 7.03029 4.63193 7.03338 4.29057C7.03647 3.94922 7.17909 3.62269 7.43052 3.38131C7.68195 3.13993 8.02208 3.00302 8.37764 3.00005C8.7332 2.99708 9.07576 3.12831 9.33152 3.36546L17.003 10.7302Z" fill="#606060"/>
</svg>
