<svg width="21" height="20" viewBox="0 0 21 20" fill="none" xmlns="http://www.w3.org/2000/svg">
<g clip-path="url(#clip0_734_191)">
<path d="M10.5003 12.4998C11.6831 12.4998 12.6431 11.547 12.6431 10.3712C12.6431 9.19553 11.6831 8.24268 10.5003 8.24268C9.31742 8.24268 8.35742 9.19553 8.35742 10.3712C8.35742 11.547 9.31742 12.4998 10.5003 12.4998Z" stroke="#649255" stroke-linecap="round" stroke-linejoin="round"/>
<path d="M19.5998 7.6284C19.296 6.70444 18.638 5.93878 17.7702 5.49952C16.9024 5.06027 15.8957 4.98331 14.9712 5.28555C14.6413 5.37906 14.3279 5.52367 14.0427 5.71412C14.2001 5.16544 14.2278 4.58771 14.1239 4.02646C14.0199 3.46522 13.7869 2.93579 13.4434 2.47992C13.0999 2.02404 12.6553 1.65418 12.1444 1.39948C11.6336 1.14478 11.0706 1.01221 10.4998 1.01221C9.92902 1.01221 9.36602 1.14478 8.8552 1.39948C8.34437 1.65418 7.89969 2.02404 7.55619 2.47992C7.21269 2.93579 6.97977 3.46522 6.87578 4.02646C6.7718 4.58771 6.79959 5.16544 6.95696 5.71412C6.67261 5.51866 6.35925 5.36921 6.02839 5.27126C5.57158 5.12212 5.08986 5.06441 4.61075 5.10143C4.13163 5.13845 3.6645 5.26948 3.23603 5.48704C2.80755 5.70459 2.42612 6.00441 2.11351 6.36938C1.80091 6.73434 1.56325 7.1573 1.4141 7.61412C1.26496 8.07093 1.20725 8.55264 1.24428 9.03176C1.2813 9.51087 1.41233 9.978 1.62988 10.4065C1.84744 10.835 2.14726 11.2164 2.51222 11.529C2.87719 11.8416 3.30015 12.0793 3.75696 12.2284C4.09156 12.3272 4.43698 12.3848 4.78553 12.3998C4.51928 12.6134 4.27948 12.858 4.07125 13.1284C3.78682 13.5156 3.58213 13.9555 3.46905 14.4224C3.35596 14.8894 3.33674 15.3741 3.41249 15.8486C3.48824 16.323 3.65746 16.7777 3.91033 17.1862C4.16319 17.5948 4.49467 17.949 4.88553 18.2284C5.67537 18.7992 6.65849 19.0353 7.6214 18.8855C8.58431 18.7357 9.44925 18.2121 10.0284 17.4284C10.2294 17.1483 10.3882 16.8403 10.4998 16.5141C10.6155 16.8413 10.7798 17.1484 10.9855 17.4284C11.3442 17.9144 11.8164 18.3051 12.3609 18.5666C12.9054 18.828 13.5056 18.9521 14.1092 18.9282C14.7127 18.9042 15.3012 18.7329 15.8232 18.4291C16.3453 18.1254 16.7851 17.6984 17.1041 17.1855C17.4847 16.5703 17.6728 15.8552 17.644 15.1323C17.6152 14.4093 17.371 13.7115 16.9427 13.1284C16.7344 12.858 16.4946 12.6134 16.2284 12.3998C16.5721 12.3836 16.9127 12.3261 17.2427 12.2284C17.7004 12.0825 18.1247 11.8475 18.4913 11.537C18.8578 11.2264 19.1593 10.8464 19.3784 10.4189C19.5975 9.99132 19.7298 9.52466 19.7678 9.04575C19.8058 8.56685 19.7487 8.08515 19.5998 7.6284Z" stroke="#649255" stroke-linecap="round" stroke-linejoin="round"/>
</g>
<defs>
<clipPath id="clip0_734_191">
<rect width="20" height="20" fill="white" transform="translate(0.5)"/>
</clipPath>
</defs>
</svg>
