<svg width="20" height="21" viewBox="0 0 20 21" fill="none" xmlns="http://www.w3.org/2000/svg">
<path fill-rule="evenodd" clip-rule="evenodd" d="M10 0.500005C8.4032 0.498241 6.85943 0.975244 5.65312 1.84313C4.44681 2.71101 3.65923 3.9113 3.43549 5.22285C3.21176 6.5344 3.56694 7.86884 4.4356 8.98031C5.30426 10.0918 6.62787 10.9054 8.16256 11.2712C5.98173 11.4909 4.11141 12.1303 2.70137 13.2833C0.907762 14.7485 0 16.9318 0 19.7803C0 19.9712 0.0914052 20.1542 0.254108 20.2892C0.416811 20.4242 0.637483 20.5 0.86758 20.5C1.09768 20.5 1.31835 20.4242 1.48105 20.2892C1.64375 20.1542 1.73516 19.9712 1.73516 19.7803C1.73516 17.1742 2.56256 15.4167 3.91963 14.3076C5.27854 13.197 7.30959 12.6212 10 12.6212C12.6904 12.6212 14.7215 13.197 16.0822 14.3076C17.4374 15.4182 18.2648 17.1742 18.2648 19.7803C18.2648 19.9712 18.3562 20.1542 18.5189 20.2892C18.6816 20.4242 18.9023 20.5 19.1324 20.5C19.3625 20.5 19.5832 20.4242 19.7459 20.2892C19.9086 20.1542 20 19.9712 20 19.7803C20 16.9318 19.0922 14.75 17.2968 13.2833C15.8904 12.1318 14.0183 11.4909 11.8374 11.2712C13.367 10.9013 14.6846 10.0864 15.5487 8.97602C16.4129 7.86563 16.7657 6.53408 16.5424 5.22545C16.3192 3.91681 15.5349 2.71875 14.3333 1.85085C13.1317 0.982957 11.5932 0.503374 10 0.500005ZM5.11415 5.99243C5.11415 4.9175 5.62891 3.88659 6.54519 3.1265C7.46146 2.36641 8.70419 1.9394 10 1.9394C11.2958 1.9394 12.5385 2.36641 13.4548 3.1265C14.3711 3.88659 14.8858 4.9175 14.8858 5.99243C14.8858 7.06736 14.3711 8.09826 13.4548 8.85835C12.5385 9.61844 11.2958 10.0455 10 10.0455C8.70419 10.0455 7.46146 9.61844 6.54519 8.85835C5.62891 8.09826 5.11415 7.06736 5.11415 5.99243Z" fill="#808080"/>
</svg>
