<svg width="20" height="21" viewBox="0 0 20 21" fill="none" xmlns="http://www.w3.org/2000/svg">
<path d="M19.6877 0.5H18.75V0.798667C17.4447 1.09067 17.257 2.30233 17.1833 2.76533C17.1483 2.98433 17.0773 3.41267 16.9893 3.93733H0.662545C0.0165413 3.93733 -0.0557925 4.541 0.0285414 4.875L1.94389 13.3307C2.02789 13.6647 2.38156 13.9373 2.72822 13.9373H17.043C17.3877 13.9373 17.6687 14.2177 17.6687 14.5623C17.6687 14.907 17.3877 15.1873 17.043 15.1873H1.41822C1.25246 15.1873 1.09348 15.2532 0.976272 15.3704C0.859061 15.4876 0.793213 15.6466 0.793213 15.8123C0.793213 15.9781 0.859061 16.1371 0.976272 16.2543C1.09348 16.3715 1.25246 16.4373 1.41822 16.4373H2.22822C1.83712 16.6533 1.51108 16.9701 1.28407 17.3549C1.05707 17.7396 0.937403 18.1783 0.937547 18.625H1.56255C1.56255 19.66 2.40256 20.5 3.43756 20.5C4.47257 20.5 5.31257 19.66 5.31257 18.625H5.93758C5.93765 18.1782 5.81792 17.7396 5.59086 17.3548C5.3638 16.9701 5.03771 16.6532 4.64657 16.4373H13.478C13.0868 16.6532 12.7607 16.9701 12.5337 17.3548C12.3066 17.7396 12.1869 18.1782 12.187 18.625H12.812C12.8212 19.1162 13.0229 19.5842 13.3736 19.9284C13.7242 20.2725 14.196 20.4653 14.6873 20.4653C15.1786 20.4653 15.6504 20.2725 16.001 19.9284C16.3517 19.5842 16.5534 19.1162 16.5626 18.625H17.1876C17.1877 18.1783 17.068 17.7397 16.841 17.355C16.614 16.9702 16.288 16.6533 15.897 16.4373H17.0436C17.5409 16.4371 18.0176 16.2394 18.3692 15.8879C18.7208 15.5363 18.9184 15.0595 18.9187 14.5623C18.9186 14.3161 18.8701 14.0722 18.7758 13.8447C18.6815 13.6172 18.5433 13.4105 18.3691 13.2364C18.195 13.0623 17.9882 12.9242 17.7607 12.83C17.5331 12.7358 17.2893 12.6873 17.043 12.6873H16.8106L17.61 7.71733C17.8327 6.40467 18.3127 3.569 18.4253 2.86367C18.482 2.50733 18.537 2.257 18.75 2.11667V2.37467H19.6877C19.7704 2.3744 19.8496 2.34146 19.9081 2.28301C19.9666 2.22457 19.9996 2.14536 20 2.06267V0.812667C19.9998 0.729854 19.9669 0.650479 19.9083 0.59189C19.8498 0.533301 19.7705 0.500264 19.6877 0.5ZM3.43756 19.5627C3.18896 19.5624 2.95061 19.4635 2.77482 19.2877C2.59903 19.1119 2.50015 18.8736 2.49989 18.625H4.3749C4.37464 18.8735 4.27581 19.1118 4.10009 19.2876C3.92437 19.4634 3.68611 19.5623 3.43756 19.5627ZM14.6876 19.5627C14.439 19.5625 14.2005 19.4637 14.0247 19.2879C13.8488 19.1121 13.7499 18.8737 13.7496 18.625H15.6253C15.6249 18.8736 15.5259 19.1118 15.3502 19.2875C15.1744 19.4633 14.9362 19.5622 14.6876 19.5627ZM13.9186 5.498C13.9296 5.41328 13.9707 5.33533 14.0343 5.27832C14.0979 5.2213 14.1799 5.18902 14.2653 5.18733H16.2443C16.4163 5.18733 16.536 5.326 16.509 5.49633L16.313 6.75333C16.287 6.92333 16.124 7.06233 15.9516 7.06233H14.064C14.0242 7.06339 13.9847 7.05582 13.9482 7.04015C13.9116 7.02447 13.8789 7.00107 13.8523 6.97155C13.8256 6.94203 13.8057 6.90709 13.7938 6.86913C13.782 6.83117 13.7785 6.7911 13.7836 6.75167L13.9186 5.498ZM13.5823 8.623C13.5935 8.53837 13.6346 8.46053 13.6982 8.40355C13.7617 8.34658 13.8436 8.31422 13.929 8.31233H15.7566C15.929 8.31233 16.0483 8.451 16.0223 8.62133L15.8746 9.566C15.8483 9.736 15.6856 9.875 15.5133 9.875H13.761C13.7212 9.87594 13.6818 9.86829 13.6453 9.85258C13.6088 9.83688 13.5761 9.81347 13.5495 9.78398C13.5229 9.75448 13.503 9.71959 13.4911 9.68168C13.4792 9.64377 13.4756 9.60375 13.4806 9.56433L13.5823 8.623ZM1.62188 6.759L1.30522 5.49067C1.26388 5.32333 1.37122 5.18733 1.54355 5.18733H3.89657C4.06923 5.18733 4.2249 5.327 4.24323 5.498L4.3779 6.752C4.3829 6.79138 4.37934 6.83138 4.36747 6.86927C4.3556 6.90715 4.33569 6.94203 4.30911 6.97152C4.28254 7.00101 4.24991 7.02442 4.21346 7.04015C4.17701 7.05588 4.13759 7.06356 4.0979 7.06267H2.01089C1.83889 7.06267 1.66355 6.92567 1.62188 6.759ZM2.71222 9.875C2.54022 9.875 2.36489 9.73833 2.32356 9.57167L2.08489 8.616C2.04322 8.44867 2.14989 8.31267 2.32222 8.31267H4.2319C4.40424 8.31267 4.56024 8.45233 4.57857 8.62333L4.6799 9.56467C4.68496 9.60406 4.68144 9.64408 4.66959 9.68199C4.65774 9.7199 4.63784 9.7548 4.61125 9.7843C4.58466 9.8138 4.55201 9.83721 4.51553 9.85293C4.47905 9.86864 4.43961 9.87628 4.3999 9.87533L2.71222 9.875ZM4.7019 12.6877H3.41356C3.24056 12.6877 3.06623 12.551 3.02456 12.3843L2.78589 11.4287C2.74456 11.2613 2.85123 11.1253 3.02389 11.1253H4.5339C4.70624 11.1253 4.86224 11.265 4.88124 11.436L4.98191 12.3773C4.98697 12.4167 4.98345 12.4567 4.9716 12.4946C4.95974 12.5325 4.93984 12.5674 4.91324 12.5969C4.88664 12.6263 4.85399 12.6497 4.81751 12.6654C4.78103 12.6811 4.74159 12.6887 4.7019 12.6877ZM8.53259 12.375C8.53224 12.4579 8.4991 12.5374 8.44039 12.5959C8.38169 12.6545 8.30219 12.6875 8.21926 12.6877H6.58892C6.50356 12.6859 6.42167 12.6536 6.35812 12.5966C6.29457 12.5396 6.25357 12.4617 6.24258 12.377L6.14125 11.4357C6.13608 11.3963 6.13951 11.3562 6.1513 11.3183C6.16309 11.2804 6.18295 11.2454 6.20953 11.2159C6.23611 11.1864 6.26876 11.163 6.30525 11.1473C6.34175 11.1316 6.3812 11.124 6.42092 11.125H8.21926C8.30225 11.125 8.38184 11.1579 8.44059 11.2165C8.49933 11.2752 8.53242 11.3547 8.53259 11.4377V12.375ZM8.53259 9.56267C8.53224 9.6456 8.4991 9.72502 8.44039 9.7836C8.38169 9.84218 8.30219 9.87516 8.21926 9.87533H6.28658C6.11458 9.87533 5.95925 9.73567 5.93991 9.56467L5.83924 8.62333C5.83414 8.58396 5.83761 8.54394 5.84942 8.50603C5.86123 8.46812 5.88109 8.43322 5.90766 8.40371C5.93423 8.3742 5.96686 8.35078 6.00332 8.33507C6.03979 8.31935 6.07922 8.31171 6.11891 8.31267H8.21926C8.30225 8.31267 8.38184 8.34559 8.44059 8.4042C8.49933 8.46282 8.53242 8.54235 8.53259 8.62533V9.56267ZM8.53259 6.75C8.53224 6.83293 8.4991 6.91236 8.44039 6.97094C8.38169 7.02951 8.30219 7.06249 8.21926 7.06267H5.98525C5.89983 7.06098 5.81786 7.0287 5.75424 6.97168C5.69062 6.91467 5.64958 6.83672 5.63858 6.752L5.50391 5.498C5.49886 5.45861 5.50237 5.41858 5.51422 5.38068C5.52607 5.34277 5.54597 5.30787 5.57257 5.27837C5.59916 5.24886 5.63181 5.22545 5.66829 5.20974C5.70476 5.19403 5.7442 5.18639 5.78391 5.18733H8.21959C8.30258 5.18733 8.38218 5.22025 8.44092 5.27887C8.49966 5.33749 8.53275 5.41701 8.53293 5.5V6.75H8.53259ZM11.9189 12.377C11.9079 12.4617 11.8668 12.5396 11.8032 12.5966C11.7396 12.6536 11.6577 12.6859 11.5723 12.6877H10.0989C10.016 12.6875 9.93658 12.6545 9.87792 12.5959C9.81927 12.5373 9.7862 12.4579 9.78594 12.375V11.4373C9.78611 11.3544 9.81916 11.2749 9.87783 11.2163C9.9365 11.1577 10.016 11.1248 10.0989 11.1247H11.7403C11.9123 11.1247 12.0389 11.2643 12.0203 11.4353L11.9189 12.377ZM12.221 9.56433C12.2099 9.64902 12.1688 9.72694 12.1052 9.78394C12.0416 9.84094 11.9597 9.87325 11.8743 9.875H10.0989C10.016 9.87482 9.93658 9.84184 9.87792 9.78325C9.81927 9.72466 9.7862 9.64523 9.78594 9.56233V8.62467C9.78611 8.54174 9.81916 8.46226 9.87783 8.40366C9.9365 8.34505 10.016 8.31209 10.0989 8.312H12.0423C12.2146 8.312 12.341 8.45167 12.322 8.62267L12.221 9.56433ZM12.523 6.752C12.5119 6.83669 12.4708 6.91461 12.4072 6.97161C12.3436 7.02861 12.2617 7.06091 12.1763 7.06267H10.0989C10.016 7.06249 9.93658 7.0295 9.87792 6.97091C9.81927 6.91233 9.7862 6.8329 9.78594 6.75V5.5C9.78611 5.41707 9.81916 5.3376 9.87783 5.27899C9.9365 5.22038 10.016 5.18742 10.0989 5.18733H12.378C12.5503 5.18733 12.6766 5.327 12.6583 5.498L12.523 6.752ZM14.9336 12.6877V12.6853L14.931 12.6877H13.459C13.4493 12.6877 13.441 12.683 13.4313 12.6817C13.4296 12.6703 13.4296 12.659 13.4276 12.647L13.413 12.6777C13.417 12.6787 13.4211 12.6796 13.4253 12.6803C13.2716 12.6627 13.1616 12.5357 13.1793 12.377L13.28 11.4357C13.2912 11.351 13.3323 11.2732 13.3958 11.2162C13.4594 11.1592 13.5413 11.1269 13.6266 11.125H15.3186C15.491 11.125 15.6096 11.2637 15.5836 11.434L15.436 12.3787C15.4103 12.5487 15.2476 12.6877 15.0753 12.6877H14.9336Z" fill="#808080"/>
</svg>
