<svg width="20" height="21" viewBox="0 0 20 21" fill="none" xmlns="http://www.w3.org/2000/svg">
<g clip-path="url(#clip0_403_2016)">
<path d="M14.7939 13.5786H13.8905L13.5703 13.2699C14.7297 11.9251 15.3669 10.2083 15.3656 8.43282C15.3656 6.96275 14.9297 5.52569 14.113 4.30337C13.2963 3.08105 12.1354 2.12837 10.7772 1.56579C9.41907 1.00322 7.92457 0.856026 6.48275 1.14282C5.04092 1.42962 3.71652 2.13753 2.67702 3.17702C1.63753 4.21652 0.92962 5.54092 0.642823 6.98275C0.356026 8.42457 0.503221 9.91907 1.06579 11.2772C1.62837 12.6354 2.58105 13.7963 3.80337 14.613C5.02569 15.4297 6.46275 15.8656 7.93282 15.8656C9.77387 15.8656 11.4663 15.191 12.7699 14.0703L13.0786 14.3905V15.2939L18.7962 21L20.5 19.2962L14.7939 13.5786ZM7.93282 13.5786C5.08548 13.5786 2.78702 11.2802 2.78702 8.43282C2.78702 5.58548 5.08548 3.28702 7.93282 3.28702C10.7802 3.28702 13.0786 5.58548 13.0786 8.43282C13.0786 11.2802 10.7802 13.5786 7.93282 13.5786Z" fill="#808080"/>
</g>
<defs>
<clipPath id="clip0_403_2016">
<rect width="20" height="20" fill="white" transform="translate(0 0.5)"/>
</clipPath>
</defs>
</svg>
