<svg width="58" height="59" viewBox="0 0 58 59" fill="none" xmlns="http://www.w3.org/2000/svg">
<g clip-path="url(#clip0_794_2)">
<path d="M12.1544 0L46.6986 0C47.2075 0 47.6957 0.202548 48.0556 0.563084C48.4155 0.923621 48.6177 1.41261 48.6177 1.92249V43.8296C48.6177 44.4704 48.2978 45.0728 47.7637 45.4317L30.4916 56.9666C30.1762 57.1774 29.8056 57.2899 29.4265 57.2899C29.0474 57.2899 28.6768 57.1774 28.3614 56.9666L11.0893 45.4317C10.8262 45.2558 10.6106 45.0175 10.4616 44.738C10.3126 44.4585 10.2349 44.1464 10.2353 43.8296V1.92249C10.2353 1.67002 10.285 1.42003 10.3814 1.18679C10.4779 0.953538 10.6192 0.741604 10.7974 0.563084C10.9756 0.384565 11.1872 0.242955 11.42 0.146341C11.6529 0.0497264 11.9024 0 12.1544 0Z" fill="#FF6363" fill-opacity="0.61" stroke="#FF6363" stroke-opacity="0.61" stroke-width="1.5"/>
<path d="M22.43 38V34.43H27.23V20.39H23.18V17.66C25.43 17.24 26.93 16.67 28.37 15.8H31.64V34.43H35.81V38H22.43Z" fill="white"/>
</g>
<defs>
<clipPath id="clip0_794_2">
<rect width="59" height="58" fill="white" transform="matrix(0 1 -1 0 58 0)"/>
</clipPath>
</defs>
</svg>
