<svg width="60" height="61" viewBox="0 0 60 61" fill="none" xmlns="http://www.w3.org/2000/svg">
<path opacity="0.2" fill-rule="evenodd" clip-rule="evenodd" d="M33 20.666C38.07 11.597 55.5 14.762 55.5 27.866C55.5 36.62 48 44.612 33 51.845C18 44.615 10.5 36.62 10.5 27.866C10.5 14.762 27.93 11.597 33 20.666Z" fill="#E11D31"/>
<path fill-rule="evenodd" clip-rule="evenodd" d="M16.854 14.3541C12.555 15.3981 9 18.7101 9 24.4881C9 32.1801 15.507 39.7071 30 46.8321C44.493 39.7071 51 32.1801 51 24.4881C51 18.7131 47.445 15.3981 43.146 14.3541C38.733 13.2801 33.78 14.6631 31.209 18.1641C31.0697 18.3538 30.8876 18.5081 30.6776 18.6144C30.4675 18.7208 30.2354 18.7762 30 18.7762C29.7646 18.7762 29.5325 18.7208 29.3224 18.6144C29.1124 18.5081 28.9303 18.3538 28.791 18.1641C26.22 14.6631 21.267 13.2801 16.854 14.3541ZM30 14.9841C26.43 11.4051 20.904 10.2801 16.146 11.4351C10.695 12.7641 6 17.1381 6 24.4881C6 34.2081 14.298 42.5841 29.349 49.8501C29.5521 49.9479 29.7746 49.9987 30 49.9987C30.2254 49.9987 30.4479 49.9479 30.651 49.8501C45.702 42.5841 54 34.2111 54 24.4881C54 17.1381 49.305 12.7641 43.854 11.4381C39.096 10.2831 33.573 11.4111 30 14.9841Z" fill="#F43F48"/>
</svg>
