<svg width="20" height="20" viewBox="0 0 20 20" fill="none" xmlns="http://www.w3.org/2000/svg">
<g clip-path="url(#clip0_624_93)">
<path fill-rule="evenodd" clip-rule="evenodd" d="M6.88837 1.58856C7.49532 0.98179 8.26648 0.565767 9.10688 0.391721C9.94728 0.217675 10.8202 0.293206 11.6183 0.609012C12.4163 0.924818 13.1045 1.46711 13.5982 2.16912C14.0919 2.87113 14.3696 3.70219 14.3969 4.55999C15.4878 4.24556 16.6582 4.36641 17.6618 4.89713C18.6654 5.42785 19.4241 6.32708 19.7784 7.40571C20.1283 8.48098 20.0468 9.65158 19.551 10.6679C19.0553 11.6842 18.184 12.4681 17.1212 12.8543C17.7516 13.7917 17.9918 14.9379 17.791 16.0496C17.5901 17.1613 16.964 18.1509 16.0455 18.8086C15.1253 19.4731 13.9845 19.7577 12.86 19.6031C11.7355 19.4485 10.7137 18.8667 10.0069 17.9786C9.56681 18.5323 9.00006 18.9721 8.35442 19.2611C7.70878 19.55 7.00317 19.6795 6.297 19.6388C5.59084 19.5981 4.90481 19.3882 4.29669 19.0269C3.68857 18.6656 3.17617 18.1635 2.80266 17.5628C2.36321 16.8532 2.13759 16.0319 2.15279 15.1974C2.16799 14.3628 2.42337 13.5503 2.88837 12.8571C1.82772 12.4648 0.960247 11.6769 0.467952 10.6588C-0.0243437 9.64063 -0.1032 8.47141 0.247928 7.39641C0.599056 6.3214 1.35288 5.42416 2.35124 4.89293C3.34959 4.3617 4.5149 4.23777 5.60266 4.54714C5.64158 3.43424 6.10103 2.37749 6.88837 1.58999V1.58856ZM13.1498 10.3714C13.1498 12.1 11.7398 13.5 9.9998 13.5C9.16726 13.5026 8.36775 13.1746 7.77705 12.5879C7.18635 12.0012 6.85282 11.204 6.8498 10.3714C6.8498 8.64285 8.2598 7.24285 9.9998 7.24285C11.7398 7.24285 13.1498 8.64285 13.1498 10.3714Z" fill="#838383"/>
</g>
<defs>
<clipPath id="clip0_624_93">
<rect width="20" height="20" fill="white"/>
</clipPath>
</defs>
</svg>
